<?xml version="1.0" encoding="UTF-8" standalone="no"?>
<svg
   xmlns:dc="http://purl.org/dc/elements/1.1/"
   xmlns:cc="http://creativecommons.org/ns#"
   xmlns:rdf="http://www.w3.org/1999/02/22-rdf-syntax-ns#"
   xmlns:svg="http://www.w3.org/2000/svg"
   xmlns="http://www.w3.org/2000/svg"
   xmlns:sodipodi="http://sodipodi.sourceforge.net/DTD/sodipodi-0.dtd"
   xmlns:inkscape="http://www.inkscape.org/namespaces/inkscape"
   id="regular"
   enable-background="new 0 0 24 24"
   height="512"
   viewBox="0 0 24 24"
   width="512"
   version="1.1"
   sodipodi:docname="email.svg"
   inkscape:version="0.92.3 (2405546, 2018-03-11)">
  <metadata
     id="metadata3673">
    <rdf:RDF>
      <cc:Work
         rdf:about="">
        <dc:format>image/svg+xml</dc:format>
        <dc:type
           rdf:resource="http://purl.org/dc/dcmitype/StillImage" />
        <dc:title></dc:title>
      </cc:Work>
    </rdf:RDF>
  </metadata>
  <defs
     id="defs3671" />
  <sodipodi:namedview
     pagecolor="#ffffff"
     bordercolor="#666666"
     borderopacity="1"
     objecttolerance="10"
     gridtolerance="10"
     guidetolerance="10"
     inkscape:pageopacity="0"
     inkscape:pageshadow="2"
     inkscape:window-width="1920"
     inkscape:window-height="1017"
     id="namedview3669"
     showgrid="false"
     inkscape:zoom="0.4609375"
     inkscape:cx="256"
     inkscape:cy="256"
     inkscape:window-x="-8"
     inkscape:window-y="-8"
     inkscape:window-maximized="1"
     inkscape:current-layer="regular"
     showguides="false" />
  <path
     d="m.415 11.196 5.869 2.925c.227.112.495.104.712-.023l5.224-3.037-3.162 2.802c-.161.143-.253.347-.253.562v6.825c0 .72.919 1.023 1.35.451l2.537-3.373 6.274 3.573c.44.253 1.004-.001 1.106-.504l3.913-19.5c.117-.586-.466-1.064-1.008-.846l-22.5 8.775c-.604.236-.643 1.081-.062 1.37zm21.83-8.249-3.439 17.137-5.945-3.386c-.324-.185-.741-.103-.971.201l-1.585 2.107v-4.244l8.551-7.576c.677-.599-.101-1.664-.874-1.21l-11.39 6.622-3.992-1.989z"
     id="path3666"
     style="fill:#6e6e6f;fill-opacity:0.94117647" />
</svg>
