<?xml version="1.0" encoding="UTF-8" standalone="no"?>
<svg
   xmlns:dc="http://purl.org/dc/elements/1.1/"
   xmlns:cc="http://creativecommons.org/ns#"
   xmlns:rdf="http://www.w3.org/1999/02/22-rdf-syntax-ns#"
   xmlns:svg="http://www.w3.org/2000/svg"
   xmlns="http://www.w3.org/2000/svg"
   xmlns:sodipodi="http://sodipodi.sourceforge.net/DTD/sodipodi-0.dtd"
   xmlns:inkscape="http://www.inkscape.org/namespaces/inkscape"
   id="regular"
   enable-background="new 0 0 24 24"
   height="512"
   viewBox="0 0 24 24"
   width="512"
   version="1.1"
   sodipodi:docname="023-facebook.svg"
   inkscape:version="0.92.3 (2405546, 2018-03-11)">
  <metadata
     id="metadata841">
    <rdf:RDF>
      <cc:Work
         rdf:about="">
        <dc:format>image/svg+xml</dc:format>
        <dc:type
           rdf:resource="http://purl.org/dc/dcmitype/StillImage" />
        <dc:title></dc:title>
      </cc:Work>
    </rdf:RDF>
  </metadata>
  <defs
     id="defs839" />
  <sodipodi:namedview
     pagecolor="#ffffff"
     bordercolor="#666666"
     borderopacity="1"
     objecttolerance="10"
     gridtolerance="10"
     guidetolerance="10"
     inkscape:pageopacity="0"
     inkscape:pageshadow="2"
     inkscape:window-width="716"
     inkscape:window-height="480"
     id="namedview837"
     showgrid="false"
     inkscape:zoom="0.4609375"
     inkscape:cx="256"
     inkscape:cy="256"
     inkscape:window-x="-8"
     inkscape:window-y="0"
     inkscape:window-maximized="0"
     inkscape:current-layer="regular" />
  <path
     d="m6.812 13.937h2.518v9.312c0 .414.335.75.75.75l4.007.001c.415 0 .75-.337.75-.75v-9.312h2.387c.378 0 .697-.282.744-.657l.498-4c.056-.446-.293-.843-.744-.843h-2.885c.113-2.471-.435-3.202 1.172-3.202 1.088-.13 2.804.421 2.804-.75v-3.577c0-.375-.277-.692-.648-.743-.314-.043-1.555-.166-3.094-.166-7.01 0-5.567 7.772-5.74 8.437h-2.519c-.414 0-.75.336-.75.75v4c0 .414.336.75.75.75zm.75-3.999h2.518c.414 0 .75-.336.75-.75v-3.151c0-2.883 1.545-4.536 4.24-4.536.878 0 1.686.043 2.242.087v2.149c-.402.205-3.976-.884-3.976 2.697v2.755c0 .414.336.75.75.75h2.786l-.312 2.5h-2.474c-.414 0-.75.336-.75.75v9.311h-2.505v-9.312c0-.414-.336-.75-.75-.75h-2.519z"
     id="path834"
     style="fill:#6e6e6e;fill-opacity:1" />
</svg>
