<svg id="regular" enable-background="new 0 0 24 24" height="512" viewBox="0 0 24 24" width="512" xmlns="http://www.w3.org/2000/svg"><path d="m1.371 18.249c1.693.993 3.548 1.985 5.341 2.945 1.655.886 3.368 1.802 4.927 2.706.116.066.246.1.376.1.129 0 .259-.033.375-.1 1.572-.906 3.296-1.827 4.964-2.717 1.77-.945 3.599-1.921 5.273-2.894.231-.134.373-.382.373-.65-.007-3.756-.005-7.512-.001-11.267 0-.268-.142-.516-.374-.65-1.661-.963-3.475-1.935-5.229-2.875-1.681-.901-3.419-1.833-5.005-2.747-.231-.134-.517-.134-.749 0-1.659.956-3.222 1.926-4.733 2.864-1.46.906-2.969 1.843-4.56 2.763-.233.135-.375.384-.374.653l.001 2.296c0 .269.144.518.377.651 1.603.917 3.125 1.903 4.596 2.856 1.498.97 3.045 1.973 4.694 2.915.231.132.517.131.748-.002 1.006-.583 2.14-1.303 3.237-2 .656-.416 1.325-.841 1.967-1.237-.001.252-.002.508-.003.765-.003.809-.006 1.629-.001 2.379-.823.499-1.717 1.062-2.617 1.627-1.014.638-2.035 1.281-2.967 1.839l-6.487-3.697c-.242-.138-.541-.13-.776.02l-3.399 2.178c-.219.141-.35.385-.345.646s.146.501.371.633zm3.801-1.949 6.472 3.688c.234.133.521.131.752-.005 1.04-.613 2.213-1.351 3.377-2.083 1.026-.646 2.044-1.286 2.957-1.832.229-.137.368-.385.365-.652-.01-.853-.006-1.829-.002-2.787.003-.73.005-1.45.002-2.099-.001-.268-.146-.515-.378-.648s-.518-.132-.75.003c-.977.569-2.078 1.268-3.144 1.944-.949.603-1.926 1.223-2.812 1.749-1.475-.859-2.882-1.771-4.247-2.654-1.374-.89-2.791-1.808-4.289-2.681v-1.435c1.472-.86 2.87-1.728 4.225-2.569 1.387-.861 2.817-1.749 4.319-2.623 1.5.855 3.109 1.717 4.669 2.554 1.611.863 3.273 1.754 4.811 2.635-.003 3.468-.004 6.936.001 10.404-1.549.889-3.226 1.784-4.852 2.652-1.547.826-3.143 1.678-4.631 2.525-1.477-.845-3.061-1.693-4.597-2.515-1.409-.754-2.856-1.528-4.226-2.303z"/><path d="m14.298 5.301-1.896-1.263c-.251-.167-.58-.167-.83.001l-1.756 1.176c-.873.586-1.746 1.171-2.622 1.749-.208.137-.335.37-.337.62s.121.485.327.626c.855.583 1.715 1.158 2.576 1.732.604.403 1.207.806 1.809 1.212.126.085.273.128.419.128.145 0 .29-.042.416-.126l4.404-2.936c.209-.14.335-.375.335-.626s-.127-.486-.336-.625c-.838-.552-1.674-1.11-2.509-1.668zm-2.308 4.329c-.465-.313-.932-.624-1.397-.936-.547-.365-1.094-.73-1.639-1.097.567-.377 1.132-.757 1.698-1.137l1.337-.896 1.476.984c.524.35 1.048.7 1.573 1.049z"/></svg>