<svg id="regular" enable-background="new 0 0 24 24" height="512" viewBox="0 0 24 24" width="512" xmlns="http://www.w3.org/2000/svg"><path d="m20.795 1.333c-.236-.628-.682-1.06-1.291-1.25-2.177-.678-3.979 2.842-5.624 7.019-.748-2.595-2.034-5.755-3.709-6.769-.668-.405-1.247-.366-1.614-.263-.474.135-1.109.49-1.439 1.422-.684 1.932.355 5.508 1.7 8.265-.668-.145-1.304-.06-1.82.316-.509.372-.814.919-.881 1.583-.05.493.044 1.038.254 1.603-.755-.019-1.412.301-1.837.951-.945 1.442-.603 4.124.795 6.237 1.527 2.308 3.965 3.549 6.859 3.549.634 0 1.29-.06 1.963-.181 4.964-.892 7.242-4.484 6.77-10.678l-.013-.167c-.109-1.476-1.061-2.525-2.361-3.228 1.305-2.335 3.037-6.312 2.248-8.409zm-12.263.66c.125-.351.297-.44.434-.479.048-.014.176-.05.43.103 1.121.678 2.528 3.66 3.335 6.981-.923.053-1.929.247-2.426.787-1.318-2.593-2.286-5.944-1.773-7.392zm4.801 12.749c-.049-.154-.105-.306-.167-.456.171.036.34.075.513.099-.133.11-.23.239-.346.357zm-5.725-2.935c.032-.313.171-.448.273-.522.094-.069.218-.103.363-.103.561 0 1.446.508 2.187 1.486.063.096.128.185.195.267.98 1.342 1.881 2.969 1.11 3.663-.005.005-.577.399-2.756-1.993-1.099-1.204-1.429-2.235-1.372-2.798zm11.803 1.274.013.171c.261 3.427-.029 8.098-5.54 9.087-4.282.771-6.415-1.374-7.306-2.72-1.141-1.725-1.33-3.764-.791-4.587.165-.252.37-.334.688-.28.758.133 2.629 1.848 3.136 3.302.119.342.133.612.036.72-.125.142-.301.27-.656.16-.671-.208-1.51-1.171-1.642-2.22-.052-.411-.425-.698-.838-.65-.411.051-.702.426-.651.837.193 1.535 1.373 3.057 2.685 3.465.845.263 1.652.044 2.222-.594.282-.317.545-.855.396-1.685.156.036.311.066.464.066.139 0 .276-.023.411-.058.059 1.63.832 2.964.878 3.041.211.355.668.471 1.025.262.356-.21.474-.67.265-1.026-.012-.021-1.175-2.038-.423-3.73.513-1.155 1.827-1.958 3.904-2.386.404-.083.665-.476.584-.88-.08-.405-.471-.665-.876-.591-1.126.215-4.312.509-5.51-.687-.406-.406-.547-.979-.429-1.749.641-.358 3.567-.501 5.845.46 1.331.559 2.04 1.324 2.11 2.272zm-2.265-3.925c-.729-.237-1.5-.395-2.259-.485 2.508-6.535 3.689-7.311 4.17-7.156.12.038.243.105.334.347.442 1.176-.558 4.363-2.245 7.294z"/></svg>