<svg id="regular" enable-background="new 0 0 24 24" height="512" viewBox="0 0 24 24" width="512" xmlns="http://www.w3.org/2000/svg"><path d="m13.565 16.143c.619-.775-.551-1.712-1.172-.937-3.572 4.469-10.893 1.968-10.893-3.706 0-2.901 2.231-5.51 5.081-5.94 4.085-.624 6.334 3.211 7.439 7.171.738 2.645 1.749 6.269 5.806 6.269 2.301 0 4.174-1.851 4.174-4.125 0-4.945-6.848-3.2-6.848-6.75 0-3.474 5.348-3.47 5.348 0 0 .993 1.5.992 1.5 0 0-2.274-1.873-4.125-4.174-4.125s-4.174 1.851-4.174 4.125c0 4.945 6.848 3.2 6.848 6.75 0 1.447-1.2 2.625-2.674 2.625-2.709 0-3.517-2.144-4.361-5.172-1.337-4.808-4.157-8.993-9.108-8.251-3.565.537-6.357 3.798-6.357 7.423 0 7.05 9.092 10.237 13.565 4.643z"/></svg>