<svg id="regular" enable-background="new 0 0 24 24" height="512" viewBox="0 0 24 24" width="512" xmlns="http://www.w3.org/2000/svg"><path d="m7.664 7.422c.989-.963.865-2.723.005-3.572-1.183-1.168-3.359-.714-4.623-.846-1.113-.099-.817 1.372-1.782 4.438-.124.489.263.969.792.93 1.179-.099 4.207.415 5.608-.95zm-4.119-2.893c.959.009 2.545-.129 3.07.388.294.29.358 1.083.002 1.431-.673.655-2.706.54-3.662.52z"/><path d="m.044 13.254c-.125.494.272.974.792.93 1.154-.093 4.221.401 5.608-.95.989-.964.865-2.724.005-3.573-1.186-1.17-3.369-.716-4.623-.846-1.116-.107-.835 1.443-1.782 4.439zm2.28-2.913c.958.011 2.546-.129 3.07.389.294.289.358 1.082.002 1.43-.675.657-2.706.54-3.661.52z"/><path d="m15.969 3.85c-1.189-1.172-3.338-.712-4.623-.846-1.107-.098-.807 1.345-1.782 4.438-.124.489.263.97.792.93 1.154-.097 4.208.414 5.608-.95.989-.963.865-2.723.005-3.572zm-1.052 2.498c-.674.658-2.707.54-3.661.52l.589-2.338c.955.009 2.543-.13 3.07.389.289.28.362 1.077.002 1.429z"/><path d="m14.749 9.662c-1.189-1.172-3.373-.717-4.623-.846-1.112-.106-.826 1.402-1.782 4.438-.125.494.272.974.792.93 1.192-.096 4.213.409 5.608-.95.989-.962.865-2.723.005-3.572zm-1.052 2.498c-.674.655-2.7.54-3.662.52l.589-2.338c.959.011 2.546-.129 3.07.389.295.288.359 1.081.003 1.429z"/><path d="m7.671 19.997c1.186-.098 4.21.412 5.608-.95.989-.964.865-2.724.005-3.573-1.183-1.167-3.322-.714-4.623-.846-1.112-.092-.808 1.354-1.781 4.438-.124.486.258.969.791.931zm1.489-3.843c.965.005 2.549-.125 3.07.389.294.289.358 1.082.002 1.43-.674.657-2.709.54-3.661.52z"/><path d="m23.333 7.725c-1.186-1.17-3.347-.714-4.623-.846-1.12-.092-.821 1.402-1.782 4.438-.125.493.269.972.792.93 1.192-.098 4.21.412 5.608-.95.99-.963.866-2.723.005-3.572zm-1.051 2.498c-.674.656-2.701.54-3.662.52l.589-2.338c1.09.01 2.561-.113 3.07.389.295.288.359 1.081.003 1.429z"/><path d="m16.5 18.06c1.18-.099 4.207.415 5.608-.95.989-.963.865-2.723.005-3.572-1.183-1.167-3.339-.713-4.623-.846-1.108-.097-.806 1.354-1.782 4.438-.127.5.282.976.792.93zm1.489-3.844c.956.013 2.544-.131 3.07.389.294.289.358 1.082.002 1.43-.673.655-2.703.54-3.662.52z"/></svg>