<svg id="regular" enable-background="new 0 0 24 24" height="512" viewBox="0 0 24 24" width="512" xmlns="http://www.w3.org/2000/svg"><path d="m2.75 24h18.5c1.517 0 2.75-1.233 2.75-2.75v-18.5c0-1.517-1.233-2.75-2.75-2.75h-18.5c-1.517 0-2.75 1.233-2.75 2.75v18.5c0 1.517 1.233 2.75 2.75 2.75zm-1.25-2.75v-8.989c10.213-.007 10.017.021 10.227-.02-.108 1.307.168 4.208.029 10.259h-9.006c-.689 0-1.25-.561-1.25-1.25zm19.75 1.25h-8.011v-9.761h9.261v8.511c0 .689-.561 1.25-1.25 1.25zm1.25-19.75v8.489c-10.301.007-10.016-.021-10.228.02.102-1.276-.165-4.06-.029-9.759h9.007c.689 0 1.25.561 1.25 1.25zm-19.75-1.25h8.011v9.261h-9.261v-8.011c0-.689.561-1.25 1.25-1.25z"/></svg>