<svg id="regular" enable-background="new 0 0 24 24" height="512" viewBox="0 0 24 24" width="512" xmlns="http://www.w3.org/2000/svg"><path d="m4.006 19.352-.003 3.913c0 .417.338.75.75.75h4.834c.265 0 .51-.14.645-.368l2.681-4.523h6.34c.414 0 .75-.336.75-.75v-5.87c0-.414-.336-.75-.75-.75h-2.661l3.331-6.744c.051-.102.077-.216.077-.331v-3.913c0-.414-.336-.75-.75-.75h-4.832c-.308 0-.584.188-.698.475l-1.745 4.417h-7.222c-.415 0-.75.337-.75.75l.003 5.87c0 .414.336.75.75.75h2.658l-3.331 6.744c-.05.102-.077.215-.077.33zm1.5.176 3.788-7.669c.246-.499-.117-1.082-.672-1.082h-3.117l-.002-4.37h6.982c.308 0 .584-.188.698-.475l1.745-4.417h3.572v2.988l-3.788 7.669c-.246.499.117 1.082.672 1.082h3.118v4.37h-6.017c-.265 0-.51.14-.645.368l-2.68 4.524h-3.657z"/></svg>