<svg id="regular" enable-background="new 0 0 24 24" height="512" viewBox="0 0 24 24" width="512" xmlns="http://www.w3.org/2000/svg"><path d="m.75 16.125h4.892c.414 0 .75-.336.75-.75v-11.625c0-.993-1.5-.992-1.5 0v4.094h-4.142c-.414 0-.75.336-.75.75v6.781c0 .414.336.75.75.75zm.75-6.781h3.392v5.281h-3.392z"/><path d="m10.913 18.5c-.993 0-.992 1.5 0 1.5h5c.414 0 .75-.336.75-.75v-10.656c0-.414-.336-.75-.75-.75h-4.892c-.414 0-.75.336-.75.75v6.781c0 .414.336.75.75.75h4.142v2.375zm.858-3.875v-5.281h3.392v5.281z"/><path d="m23.25 7.844h-4.892c-.414 0-.75.336-.75.75v6.781c0 .414.336.75.75.75h4.142v2.375h-4.25c-.993 0-.992 1.5 0 1.5h5c.414 0 .75-.336.75-.75v-10.656c0-.414-.336-.75-.75-.75zm-.75 6.781h-3.392v-5.281h3.392z"/><path d="m7.826 15.464c0 .993 1.5.992 1.5 0v-6.87c0-.993-1.5-.992-1.5 0z"/><path d="m9.326 5.688v-1.938c0-.993-1.5-.992-1.5 0v1.938c0 .992 1.5.992 1.5 0z"/></svg>