<svg id="regular" enable-background="new 0 0 24 24" height="512" viewBox="0 0 24 24" width="512" xmlns="http://www.w3.org/2000/svg"><path d="m18.208 1c-.105.003-15.353.002-15.458 0-1.517 0-2.75 1.233-2.75 2.75v7.714c0 1.516 1.233 2.75 2.75 2.75h3.37c.278.745.789 1.472 1.707 3.332v4.704c0 .414.336.75.75.75h2.67c2.178 0 3.949-1.769 3.949-3.943v-3.867h6.099c1.492 0 2.706-1.212 2.706-2.702.026-5.034.261-3.054-1.139-7.984-.591-2.063-2.504-3.504-4.654-3.504zm-15.458 11.714c-.689 0-1.25-.561-1.25-1.25v-7.714c0-.689.561-1.25 1.25-1.25h3.121c.014 6.16-.119 8.75-.03 10.214zm19.75-.226c0 .663-.541 1.202-1.206 1.202h-6.849c-.414 0-.75.336-.75.75v4.617c0 1.347-1.099 2.443-2.449 2.443h-1.92v-4.131c0-.316-.008-.133-1.945-4.057-.005-.025-.006-.049-.012-.073v-10.739h10.839c3.657 0 3.487 4.415 4.292 6.189z"/></svg>