<svg id="regular" enable-background="new 0 0 24 24" height="512" viewBox="0 0 24 24" width="512" xmlns="http://www.w3.org/2000/svg"><path d="m12.41.75c-6.391 0-11.59 5.159-11.59 11.5 0 1.55.307 3.052.912 4.471l-1.675 4.067c-.102.248-.064.531.1.744.164.212.425.322.694.285l4.33-.582c2.049 1.624 4.603 2.515 7.23 2.515 6.391 0 11.59-5.159 11.59-11.5s-5.2-11.5-11.591-11.5zm0 21.5c-2.387 0-4.705-.844-6.525-2.375-.136-.115-.307-.176-.483-.176-.033 0-.066.002-.1.007l-3.363.452 1.302-3.162c.08-.193.075-.41-.012-.599-.604-1.31-.909-2.705-.909-4.147 0-5.514 4.526-10 10.09-10 5.563 0 10.09 4.486 10.09 10s-4.526 10-10.09 10z"/><path d="m12.519 5.528h-4.921c-.414 0-.75.336-.75.75v11.467c0 .414.336.75.75.75h4.892c3.835 0 6.62-2.74 6.62-6.516-.001-3.738-2.773-6.451-6.591-6.451zm-.03 11.467h-4.141v-9.967h4.171c2.95 0 5.09 2.082 5.09 4.951 0 2.906-2.153 5.016-5.12 5.016z"/><path d="m10.533 8.395c-.414 0-.75.336-.75.75v5.733c0 .414.336.75.75.75.492-.13 5.641.934 5.641-3.633v-.016c0-4.554-5.046-3.432-5.641-3.584zm4.141 3.6c0 2.735-2.971 2.032-3.391 2.133v-4.233c.429.099 3.391-.575 3.391 2.084z"/></svg>