<svg id="regular" enable-background="new 0 0 24 24" height="512" viewBox="0 0 24 24" width="512" xmlns="http://www.w3.org/2000/svg"><path d="m23.649 4.778c-6.481-3.862-6.743-4.718-7.489-4.113l-4.162 3.346-4.16-3.346c-.747-.603-1.002.248-7.487 4.112-.442.278-.47.912-.059 1.229l3.806 2.936-3.806 2.937c-.413.319-.381.952.059 1.229l3.869 2.434c.563 5.167-2.45 1.99 7.423 7.86.236.134.518.13.746 0l7.017-4.031c.648-.372.268-1.026.376-3.83l3.867-2.432c.442-.278.47-.912.059-1.229l-3.807-2.937 3.807-2.936c.413-.318.382-.952-.059-1.229zm-11.653 1.056c2.648 1.505 4.215 2.508 5.185 3.11-.969.604-2.522 1.597-5.18 3.095-2.66-1.498-4.214-2.49-5.183-3.093.979-.626 2.535-1.655 5.178-3.112zm-4.681-3.665 3.373 2.713-5.306 3.156-3.323-2.563zm-1.935 7.678 5.308 3.157-3.373 2.712-5.256-3.306zm12.902 8.438-6.268 3.601-6.294-3.602v-1.799l1.25.786c.803.505 1.15-.487 5.03-3.396 3.937 2.95 4.234 3.894 5.03 3.396l1.252-.788zm-1.598-2.569-3.373-2.712 5.307-3.157 3.323 2.563zm1.935-7.679-5.308-3.156 3.373-2.711 5.257 3.306z"/></svg>