<svg id="regular" enable-background="new 0 0 24 24" height="512" viewBox="0 0 24 24" width="512" xmlns="http://www.w3.org/2000/svg"><path d="m23.921 22.915-11.25-22.5c-.254-.508-1.088-.508-1.342 0l-11.25 22.5c-.249.497.113 1.085.671 1.085h22.5c.557 0 .92-.587.671-1.085zm-11.171-.415v-1.06l4.114-2.285c.87-.484.134-1.794-.729-1.312l-3.386 1.88v-1.301l2.136-1.28c.85-.511.081-1.797-.771-1.287l-1.364.818v-2.173c0-.992-1.5-.993-1.5 0v3.374l-2.261-1.943c-.753-.647-1.729.491-.978 1.138l3.239 2.783c0 .422 0 2.748 0 2.648h-9.287l10.037-20.073 10.037 20.073z"/></svg>