<svg id="regular" enable-background="new 0 0 24 24" height="512" viewBox="0 0 24 24" width="512" xmlns="http://www.w3.org/2000/svg"><path d="m16.42 17c.842 0 1.565-.601 1.719-1.423l2.626-13.504c.202-1.078-.625-2.073-1.72-2.073h-13.295c-1.516 0-2.75 1.234-2.75 2.75v19.498c0 1.614 1.995 2.359 3.055 1.166l5.706-6.347s3.685-.067 4.659-.067zm-5.763-.948c-.004.004-.008.008-.011.012l-5.709 6.35c-.154.174-.437.066-.437-.166v-19.498c0-.689.561-1.25 1.25-1.25h13.295c.159 0 .274.145.247.291-2.801 13.951-2.475 13.709-2.872 13.709-4.962 0-5.109-.144-5.763.552z"/><path d="m16.23 12.761c.119-1.437 1.167-3.387-.162-3.49-2.074-.165-4.408.205-4.733-.079-.011-.285-.078-1.162.064-1.295.538-.002 1.582-.006 2.153.003 2.42.041 3.628.06 3.918-1.399.398-2.42.742-2.752.358-3.218-.141-.173-.353-.273-.578-.273h-10.5c-.414 0-.75.336-.75.75v13.5c0 .663.795.996 1.27.541 1.193-1.145 1.963-1.962 2.525-2.559 1.251-1.327.819-1.117 2.938-1.089 2.14.028 3.213.044 3.497-1.392zm-5.067-.122c-.977 0-1.411.46-2.459 1.574-.319.339-.707.75-1.204 1.254v-10.957h8.837c-.02.101-.381 1.898-.358 1.786-.212.142-1.274.124-2.401.106-.579-.01-1.258-.021-2.055-.021-2.03 0-1.835 3.167-1.23 3.888.793.946 2.499.422 4.812.458-.02.101-.392 1.969-.369 1.851-.294.137-1.771.061-3.573.061z"/></svg>