<svg id="regular" enable-background="new 0 0 24 24" height="512" viewBox="0 0 24 24" width="512" xmlns="http://www.w3.org/2000/svg"><path d="m3.818 17c-.581 0-1.137-.199-1.564-.56-.316-.267-.789-.228-1.057.09-.268.316-.227.79.09 1.057.698.589 1.597.913 2.531.913 2.105 0 3.818-1.63 3.818-3.635v-5.769c0-.414-.336-.75-.75-.75s-.75.336-.75.75v.017c-.644-.474-1.442-.767-2.318-.767-2.105 0-3.818 1.631-3.818 3.635s1.713 3.634 3.818 3.634c.876 0 1.674-.293 2.318-.767v.017c.001 1.177-1.039 2.135-2.318 2.135zm0-2.885c-1.278 0-2.318-.958-2.318-2.134 0-1.177 1.04-2.135 2.318-2.135s2.318.958 2.318 2.135c.001 1.177-1.039 2.134-2.318 2.134z"/><path d="m20.182 8.346c-.876 0-1.674.293-2.318.767v-3.863c0-.414-.336-.75-.75-.75s-.75.336-.75.75v9.615c0 .414.336.75.75.75s.75-.336.75-.75v-.017c.645.474 1.443.767 2.318.767 2.105 0 3.818-1.63 3.818-3.634s-1.713-3.635-3.818-3.635zm0 5.769c-1.278 0-2.318-.958-2.318-2.134 0-1.177 1.04-2.135 2.318-2.135s2.318.958 2.318 2.135-1.04 2.134-2.318 2.134z"/><path d="m8.693 13.423c0 1.209.983 2.192 2.192 2.192h3.671c.414 0 .75-.336.75-.75v-2.884-.481c0-1.739-1.483-3.154-3.307-3.154-1.04 0-1.999.453-2.631 1.242-.259.324-.206.795.117 1.054.323.258.796.208 1.055-.117.345-.432.877-.679 1.459-.679.896 0 1.635.601 1.777 1.385h-2.891c-1.208 0-2.192.983-2.192 2.192zm1.5 0c0-.381.311-.692.692-.692h2.921v1.384h-2.921c-.381 0-.692-.31-.692-.692z"/></svg>