<svg id="regular" enable-background="new 0 0 24 24" height="512" viewBox="0 0 24 24" width="512" xmlns="http://www.w3.org/2000/svg"><path d="m23.54 3.736c-.676-.763-2.03-.878-2.948-.476-.12.049-.269.111-.422.214l-3.699 2.519c-.312.253-.733.66-.802 1.261-.043.36-.039.898.494 1.41.499.476 1.2.688 1.855.688.454 0 .886-.102 1.213-.289.519-.296 3.653-2.471 4.11-2.785.691-.482.965-1.675.199-2.542zm-1.071 1.315c-.1.069-3.487 2.428-3.982 2.71-.235.135-.942.15-1.333-.228.02-.118-.063-.107.213-.337 2.968-1.895 3.529-2.673 4.344-2.673.436 0 .937.19.758.528z"/><path d="m4.769 9.063c.328.187.759.29 1.213.29.656 0 1.358-.213 1.858-.69.53-.51.534-1.048.492-1.405-.069-.604-.491-1.01-.854-1.302-4.005-2.683-3.499-2.459-4.145-2.727-.842-.37-2.198-.255-2.873.507-.675.764-.524 1.708-.098 2.261.274.357 4.282 2.995 4.407 3.066zm-3.186-4.333c.167-.188.786-.285 1.148-.127-.157-.183 2.812 1.855 3.851 2.554.232.189.258.266.26.275.009.076.004.1-.04.147-.347.332-1.055.316-1.29.181-.503-.286-3.878-2.639-3.98-2.709-.039-.072-.064-.189.051-.321z"/><path d="m12.041 1.938c-1.428 0-2.433.872-2.445 2.125.231.863-1.016 4.362 2.43 4.362 3.413 0 2.223-3.64 2.447-4.42 0-1.236-.977-2.067-2.432-2.067zm.905 4.53c-.098.337-.54.457-.92.457-.194 0-.835-.029-.932-.501l.002-2.353c.005-.587.725-.633.945-.633.618 0 .932.191.93.621z"/><path d="m17.427 9.944c-1.465-.748-3.295-1.127-5.439-1.127-3.622 0-6.439 1.136-7.933 3.2-.166.229-.179.53-.051.781.018.034.038.067.061.098.139.198.367.318.613.318l14.659-.002c.285 0 .545-.161.671-.416.127-.254.099-.559-.073-.786-.642-.851-1.486-1.546-2.508-2.066zm-10.927 1.769c1.321-.909 3.208-1.396 5.489-1.396 1.905 0 3.506.324 4.757.963h.001c.257.13.499.274.726.431z"/><path d="m12.489 20.938c.414 0 .75-.336.75-.75v-3.862c0-2.809-3.648-3.409-5.152-1.842-1.033-1.076-2.853-1-3.777-.478-.133-.212-.357-.361-.626-.361-.414 0-.75.336-.75.75v1.931 3.862c0 .414.336.75.75.75s.75-.336.75-.75v-3.862c0-1.593 2.902-1.604 2.902 0v3.862c0 .414.336.75.75.75s.75-.336.75-.75v-3.862c0-.651.541-1.181 1.207-1.181.1.031 1.696-.226 1.696 1.181v3.862c0 .414.336.75.75.75z"/><path d="m17.389 13.645c-1.906 0-3.484 1.411-3.67 3.263-.001.01-.001.021-.002.031-.002.022-.013.041-.013.063 0 .012.006.022.007.034-.007.085-.016.169-.016.256 0 2.011 1.657 3.646 3.693 3.646 1.313 0 2.538-.697 3.196-1.819.209-.357.09-.817-.268-1.026-.356-.209-.816-.089-1.026.268-.39.665-1.119 1.078-1.902 1.078-1.048 0-1.923-.723-2.14-1.686h5.057c.014 0 .026-.007.04-.008.015-.001.029.006.045.004.045-.005.081-.026.123-.038.037-.011.075-.017.109-.034.066-.03.121-.071.175-.118.016-.014.034-.025.049-.04.058-.059.101-.127.137-.203.005-.011.012-.02.017-.031.034-.082.05-.17.053-.263 0-.007.004-.013.004-.02 0-.002-.001-.004-.001-.007 0-.023.009-.045.007-.068-.189-1.871-1.769-3.282-3.674-3.282zm0 1.5c.824 0 1.54.443 1.914 1.107h-3.828c.374-.665 1.09-1.107 1.914-1.107z"/></svg>