<svg id="regular" enable-background="new 0 0 24 24" height="512" viewBox="0 0 24 24" width="512" xmlns="http://www.w3.org/2000/svg"><path d="m.106 15.965c3.687 6.145 3.214 5.893 3.51 6.044.106.281.174.418.664.477.006.005.011.009.016.014 8.032 0 8.26-.064 15.407 0 .268 0 .516-.144.65-.376 2.206-4.011 3.204-5.435 3.524-6.134.005-.008.01-.015.016-.024.004-.008.003-.017.007-.025.145-.336.123-.501-.007-.726-.006-.011-.012-.02-.018-.03-8.009-13.587-7.54-13.685-8.335-13.685-4.554.086-6.283-.068-7.047.002-.012 0-.021-.002-.033-.002.102-.028-.421-.023-.65.376-.002.004-.004.008-.006.011-7.725 13.658-8.095 13.383-7.698 14.078zm19.164 5.035h-13.636c.231-.399-.901 1.576 2.678-4.659 4.217.001 13.056-.005 13.633.006zm-4.304-6.133c-1.616.004-3.535.001-5.818-.016.806-1.393 1.767-3.038 2.918-4.984.816 1.389 1.774 3.037 2.9 5zm.142-11.867 6.82 11.812c-.442.001 1.747-.014-5.253.029-7.261-12.455-6.234-10.664-6.893-11.841zm-6.661.772c.386.66.955 1.6 1.767 2.962l.979 1.674-3.992 6.86c-.122.176-2.83 4.862-2.901 4.985l-2.679-4.661z"/></svg>