<svg id="regular" enable-background="new 0 0 24 24" height="512" viewBox="0 0 24 24" width="512" xmlns="http://www.w3.org/2000/svg"><path d="m12.332 23.923c15.87-7.823 10.974-23.923-.332-23.923-5.79 0-10.5 4.752-10.5 10.594 0 5.246 4.393 9.713 9.75 10.098v2.558c0 .556.584.917 1.082.673zm-9.332-13.329c0-5.014 4.037-9.094 9-9.094 9.511 0 13.82 13.296.75 20.513-.131-1.088.423-2.794-.75-2.794-4.794 0-9-4.031-9-8.625z"/><path d="m13 12.221c0 .979 1.202.699 1.417.75v1.179c0 1.536 3.083.623 3.083-1.929v-3.471c0-1.235-1.858-.581-3.75-.75-1.235 0-.555 1.77-.75 4.221zm1.5-2.721h1.5c-.028 2.718.062 2.793-.083 3.182v-.46c0-.979-1.202-.699-1.417-.75z"/><path d="m10.75 8h-3c-.414 0-.75.336-.75.75v3.536c0 .979 1.202.699 1.417.75.082.48-.331 1.964.75 1.964 1.221 0 2.333-1.294 2.333-2.714v-3.536c0-.414-.336-.75-.75-.75zm-.833 4.76v-.475c0-.979-1.202-.699-1.417-.75v-2.035h1.5c-.028 2.78.063 2.857-.083 3.26z"/></svg>