<svg id="regular" enable-background="new 0 0 24 24" height="512" viewBox="0 0 24 24" width="512" xmlns="http://www.w3.org/2000/svg"><path d="m13.921 14.255c-2.647 1.22-5.781-.31-6.412-3.125-.753-3.367 2.11-6.298 5.461-5.618 2.581.524 4.224 3.244 3.453 5.829-.152.507-.81.486-1.083.189-.328-.545-.036-3.062-.158-4.027-.104-.82-1.204-.842-1.443-.175-.467-.293-1.039-.48-1.739-.48-1.947 0-3.169 1.466-3.169 3.194 0 1.589 1.089 3.197 3.169 3.197.916 0 1.62-.314 2.138-.789.966 1.215 3.207 1.043 3.722-.682 1.021-3.422-1.143-7.028-4.592-7.727-4.4-.893-8.215 2.989-7.222 7.417.836 3.727 4.966 5.788 8.502 4.16.905-.417.269-1.78-.627-1.363zm-1.921-2.516c-1.317 0-1.669-1.067-1.669-1.697 0-.935.589-1.694 1.669-1.694 1.092 0 1.656.834 1.672 1.674v.048c-.004.839-.553 1.669-1.672 1.669z"/><path d="m12.332 23.923c15.87-7.823 10.974-23.923-.332-23.923-5.79 0-10.5 4.752-10.5 10.594 0 5.246 4.393 9.713 9.75 10.098v2.558c0 .555.583.918 1.082.673zm-9.332-13.329c0-5.014 4.037-9.094 9-9.094 9.511 0 13.82 13.296.75 20.513-.131-1.088.423-2.794-.75-2.794-4.794 0-9-4.031-9-8.625z"/></svg>