<svg id="regular" enable-background="new 0 0 24 24" height="512" viewBox="0 0 24 24" width="512" xmlns="http://www.w3.org/2000/svg"><path d="m.75 12.75h4.875v4.875c0 .199.079.39.22.53l5.625 5.625c.468.468 1.28.142 1.28-.53v-4.875h4.875c.199 0 .39-.079.53-.22l5.625-5.625c.47-.469.139-1.28-.53-1.28h-4.875v-4.875c0-.199-.079-.39-.22-.53l-5.625-5.625c-.472-.472-1.28-.136-1.28.53v4.875h-4.875c-.199 0-.39.079-.53.22l-5.625 5.625c-.471.469-.139 1.28.53 1.28zm5.936-5.625h5.314c.414 0 .75-.336.75-.75v-3.814l4.125 4.125v5.314c0 .414.336.75.75.75h3.814l-4.125 4.125h-5.314c-.414 0-.75.336-.75.75v3.814l-4.125-4.125v-5.314c0-.414-.336-.75-.75-.75h-3.814z"/><path d="m8.95 12.711 1.754.584.584 1.754c.229.682 1.196.681 1.424 0l.584-1.754 1.754-.584c.681-.227.682-1.195 0-1.423l-1.754-.584-.584-1.754c-.229-.682-1.196-.681-1.424 0l-.584 1.754-1.754.585c-.681.227-.682 1.195 0 1.422zm3.05-1.153c.076.205.237.366.442.442-.205.076-.366.237-.442.442-.076-.205-.237-.366-.442-.442.205-.076.366-.237.442-.442z"/></svg>