<svg id="regular" enable-background="new 0 0 24 24" height="512" viewBox="0 0 24 24" width="512" xmlns="http://www.w3.org/2000/svg"><path d="m6.631 0h-4.881c-.414 0-.75.336-.75.75v22.5c0 .414.336.75.75.75h7.81c.414 0 .75-.336.75-.75v-6.098h3.381v6.098c0 .414.336.75.75.75h7.81c.414 0 .75-.336.75-.75v-12.717c0-.328-.213-.618-.526-.716l-15.094-4.727v-4.34c0-.414-.336-.75-.75-.75zm14.869 11.084v11.416h-6.31v-6.098c0-.414-.336-.75-.75-.75h-4.88c-.414 0-.75.336-.75.75v6.098h-6.31v-21h3.381v4.141c0 .328.213.618.526.716z"/></svg>