<svg id="regular" enable-background="new 0 0 24 24" height="512" viewBox="0 0 24 24" width="512" xmlns="http://www.w3.org/2000/svg"><path d="m23.992 13.438c0-2.259-3.441-2.282-3.441-.006 0 2.269 3.441 2.275 3.441.006zm-1.941-.005c0-.275.441-.294.441.006 0 .216-.441.323-.441-.006z"/><path d="m20.57 10.245c-.386-1.355-2.189-1.929-3.205-.844l-.856.8c-.124-1.628.336-2.906-.631-3.739-1.079-.928-2.983-.39-3.127 1.204-.051.168-.044 8.519-.013 8.65.158 2.182 3.412 2.243 3.714.129.051-.169.024-.259.031-.743 1.181 1.52 1.531 2.288 2.694 2.288 1.428 0 2.271-1.441 1.716-2.633-.068-.26-.089-.179-1.802-2.408.378-.495 1.899-1.237 1.479-2.704zm-3.005 2.083c-.281.266-.314.701-.076 1.006.493.636 1.908 2.428 2.021 2.613.002.004.004.008.007.012.001.001.001.002.002.003.128.219-.02.527-.343.527-.353 0-.735-.803-2.289-2.68-.611-.74-1.364.205-1.653.429-.646.575.212 2.286-.65 2.253-.515-.016-.369.266-.342-8.647 0-.486.746-.503.746.061 0 .151.023 3.849.024 4.02.001.652.782.993 1.262.546 2.284-2.087 2.199-2.195 2.499-2.127 1.153.282-.817 1.428-1.208 1.984z"/><path d="m3.734 16.444c.051-.169.024-.259.031-.743 1.18 1.519 1.531 2.288 2.694 2.288.975 0 1.786-.696 1.872-1.698.005.029.004.06.013.088.111.944.899 1.612 1.941 1.615h.005c1.178 0 1.97-.853 1.97-1.816-.007-5.888.016-5.446-.02-5.596-.147-2.253-3.72-2.279-3.904-.028-.014.058-.022.118-.022.181v5.09c-.117-.682-.367-.826-1.941-2.875.856-.822 1.829-1.473 1.478-2.704-.188-.657-.754-1.19-1.443-1.357-.661-.16-1.317.037-1.761.511l-.856.8c-.124-1.627.336-2.905-.631-3.738-1.143-.984-3.16-.302-3.16 1.424.007 8.282-.021 8.259.02 8.429.159 2.183 3.412 2.243 3.714.129zm6.097-5.71v-.025c0-.372.587-.416.818-.229.199.158.105 5.576.103 5.677-.013.464-.911.433-.921.003-.039-1.219 0-5.324 0-5.426zm-8.306-2.889c0-.458.491-.39.656-.247.192.165.057 1.104.114 4.328.001.65.78.994 1.262.546 2.281-2.083 2.201-2.2 2.499-2.127.163.039.315.173.354.311.16.568-2.454 1.63-1.638 2.678.493.636 1.908 2.428 2.021 2.613.014.101.117.157.013.35-.039.071-.136.192-.346.192-.186 0-.219 0-.91-.92-.327-.435-.758-1.01-1.379-1.759-.657-.796-1.486.337-1.653.429-.407.362-.189.779-.263 1.943-.026.421-.74.434-.74-.036 0-.595-.003 1.792.01-8.301z"/></svg>