<svg id="regular" enable-background="new 0 0 24 24" height="512" viewBox="0 0 24 24" width="512" xmlns="http://www.w3.org/2000/svg"><path d="m24 21.25v-18.5c0-.414-.336-.75-.75-.75h-22.5c-.414 0-.75.336-.75.75v14.605c0 .414.336.75.75.75h14.498l7.668 3.816c.493.247 1.084-.111 1.084-.671zm-1.5-1.211-6.742-3.355c-.104-.052-.218-.079-.334-.079h-13.924v-13.105h21z"/><path d="m11.511 15.184h2.642c.414 0 .75-.336.75-.75v-1.46l1.775 1.963c.142.157.344.247.556.247h3.082c.65 0 .991-.773.556-1.253l-3.507-3.878 3.507-3.879c.436-.48.093-1.253-.556-1.253h-3.082c-.212 0-.414.09-.556.247l-1.775 1.963v-1.46c0-.414-.336-.75-.75-.75h-2.642c-.414 0-.75.336-.75.75v8.763c0 .414.336.75.75.75zm.75-8.763h1.142v2.171c0 .886 1.355.936 1.746.503l2.418-2.674h1.059l-2.829 3.129c-.258.286-.258.72 0 1.006l2.829 3.128h-1.059l-2.418-2.674c-.374-.414-1.746-.412-1.746.503v2.171h-1.142z"/><path d="m3.196 15.184h3.082c.212 0 .414-.09.556-.247l2.418-2.674h.303c.992 0 .993-1.5 0-1.5-.436.037-.858-.123-1.193.247l-2.418 2.674h-1.059l2.829-3.128c.258-.286.258-.72 0-1.006l-2.829-3.129h1.059l2.418 2.674c.332.368.749.209 1.192.247.992 0 .993-1.5 0-1.5h-.303l-2.418-2.674c-.142-.157-.344-.247-.556-.247h-3.081c-.648 0-.992.772-.556 1.253l3.507 3.879-3.507 3.878c-.436.481-.093 1.253.556 1.253z"/></svg>