<svg id="regular" enable-background="new 0 0 24 24" height="512" viewBox="0 0 24 24" width="512" xmlns="http://www.w3.org/2000/svg"><path d="m19.018 11.016c-3.431-.759-4.15-1.574-4.15-2.124 0-2.277 3.197-2.393 3.838-2.393 3.069 0 3.583 1.248 3.688 2.334.095.983 1.588.846 1.492-.145-.162-1.681-1.193-3.688-5.181-3.688-3.242 0-5.338 1.528-5.338 3.893 0 2.409 3.732 3.235 5.329 3.589 2.056.447 3.804.272 3.804 1.615 0 1.156-.548 2.483-4.817 2.483-6.71 0-2.328-11.58-11.141-11.58-4.157 0-6.542 2.443-6.542 6.702 0 4.003 2.322 6.298 6.37 6.298 3.264 0 4.817-1.462 4.832-1.477.676-.675-.302-1.724-1.028-1.091-.05.043-1.259 1.068-3.804 1.068-3.231 0-4.87-1.614-4.87-4.798 0-3.403 1.743-5.202 5.042-5.202 7.449 0 2.831 11.58 11.141 11.58 4.192 0 6.317-1.34 6.317-3.983 0-2.791-3.114-2.676-4.982-3.081z"/></svg>