<svg id="regular" enable-background="new 0 0 24 24" height="512" viewBox="0 0 24 24" width="512" xmlns="http://www.w3.org/2000/svg"><path d="m24 12c0-1.95-1.598-3.536-3.563-3.536h-4.875v-3.428c0-1.95-1.598-3.536-3.562-3.536h-2.109c-1.502 0-1.518 1.463-1.455 2.8.024.521.052 1.106.015 1.72-1.074 1.888-1.748 3.074-2.167 3.837h-5.534c-.414 0-.75.336-.75.75v11.143c0 .414.336.75.75.75h19.958c.296 0 .564-.174.686-.445 2.832-6.37 2.658-6.281 2.606-10.055zm-18.375 9h-4.125v-9.643h4.124c0 .002.001.005.001.008zm14.596 0h-13.096v-9.528c.154-.3.715-1.347 2.714-4.858.201-.352.114-1.972.095-2.385-.02-.424-.046-.985.004-1.229h2.062c1.138 0 2.062.913 2.062 2.036v4.179c0 .414.336.75.75.75h5.625c1.138 0 2.063.913 2.063 2.043.047 3.486.222 3.358-2.279 8.992z"/></svg>