<svg id="regular" enable-background="new 0 0 24 24" height="512" viewBox="0 0 24 24" width="512" xmlns="http://www.w3.org/2000/svg"><path d="m1.472 17.634c-.198.714-.357 1.312-.95 3.542l-.496 1.866c-.067.253.002.524.185.713.182.189.449.271.705.211 1.677-.378 4.728-1.346 5.427-1.387 1.812.944 3.755 1.41 5.678 1.41 2.593 0 5.151-.847 7.314-2.512 3.766-2.898 5.431-7.569 4.346-12.19-1.625-6.918-7.485-9.62-12.609-9.22-5.107.397-10.5 3.964-11.037 11.041-.226 2.97.626 4.796 1.134 5.887.126.27.282.606.303.639zm.059-6.413c.47-6.19 5.188-9.311 9.655-9.658 4.474-.348 9.611 2.014 11.032 8.067.949 4.04-.507 8.124-3.8 10.659-3.327 2.562-7.728 2.91-11.482.909-.147-.078-.31-.12-.535-.12-.794 0-2.637.597-4.601 1.122.657-2.473.897-3.378 1.116-4.163.147-.528-.089-1.035-.389-1.676-.473-1.02-1.192-2.561-.996-5.14z"/><path d="m5.194 15.818c5.301 3.063 11.334 1.607 14.709-3.351.233-.342.145-.809-.198-1.042-.341-.233-.808-.144-1.042.198-3.455 5.077-8.877 5.114-12.719 2.896-.36-.208-.817-.083-1.024.274-.207.359-.084.818.274 1.025z"/><path d="m13.673 10.471c.829 0 1.629-.47 2.007-1.28.838-1.799-.93-3.69-2.767-3.021-1.149.417-1.744 1.692-1.327 2.842.328.899 1.181 1.459 2.087 1.459zm-.247-2.892c.365-.134.78.05.918.428.135.366-.05.782-.429.92-.368.136-.784-.058-.919-.429s.058-.784.43-.919z"/><path d="m8.913 12.344c1.147-.418 1.743-1.692 1.326-2.841v-.001c-.419-1.147-1.686-1.747-2.843-1.325-1.148.418-1.743 1.693-1.325 2.841.419 1.154 1.693 1.746 2.842 1.326zm-1.003-2.758c.365-.134.782.051.919.428.135.372-.058.785-.43.92-.376.133-.783-.056-.918-.429-.135-.371.057-.783.429-.919z"/></svg>