<svg id="regular" enable-background="new 0 0 24 24" height="512" viewBox="0 0 24 24" width="512" xmlns="http://www.w3.org/2000/svg"><path d="m2.721 3.393c-3.789 3.887-3.366 9.648-.221 12.315.276.234.681.237.962.006l3.246-2.675c.602-.495.188-1.395-.494-1.328-.633-.049-1.447-3.405 1.302-5.065-.048.178-.016-.535-.035 12.004-.062.527-1.137-.044-1.706-.536-.484-.42-1.243-.074-1.242.568l.006 3.529c0 .221.098.431.268.573 3.039 2.562 8.734 1.131 8.473-3.665v-1.327c7.852 1.554 13.356-6.098 9.548-12.62-3.877-6.643-15.484-6.522-20.107-1.779zm12.386 13.065c-1.487 0-2.25-.341-2.25-.341-.495-.24-1.077.12-1.077.675-.2 1.092 1.015 5.708-3.291 5.708-1.16 0-2.035-.43-2.449-.683l-.003-1.752c1.595.746 2.897-.101 2.943-1.361l.01-11.118 2.789-.017-.027 5.958c-.001.305.182.581.464.697.108.044 2.664 1.074 4.853-.16 1.987-1.119 2.872-3.202 2.308-5.438-.578-2.293-2.761-4.636-6.335-4.703-1.166-.013-5.169.082-7.452 2.323-2.018 1.98-1.733 5.204-.695 6.344l-1.852 1.526c-2.442-2.894-1.809-7.048.752-9.677 3.988-4.091 14.406-4.22 17.738 1.488 2.579 4.418.084 10.531-6.426 10.531zm-2.579-10.393-3.83.022c1.374-.506 2.966-.694 4.316-.664 2.782.051 4.47 1.83 4.908 3.569.397 1.573-.197 2.98-1.589 3.764-1.091.615-2.396.406-3.079.227l.028-6.166c.003-.386-.282-.725-.754-.752z"/></svg>