<svg id="regular" enable-background="new 0 0 24 24" height="512" viewBox="0 0 24 24" width="512" xmlns="http://www.w3.org/2000/svg"><path d="m10.443 5.041c1.251.55 1.046 2.592-.578 2.592-.612 0-1.327-.348-1.327-1.327v-.029c0-.712-.905-1.023-1.342-.46-1.442 1.856-1.702 4.308-.679 6.4 2.773 5.667 11.551 3.816 11.551-2.537 0-3.445-2.655-6.249-5.918-6.249-.534 0-1.068.065-1.587.194-.692.174-.773 1.129-.12 1.416zm2.307 1.236c0-.476-.119-.933-.333-1.337 2.313.148 4.152 2.218 4.152 4.74 0 4.721-6.614 6.149-8.704 1.877-.537-1.096-.604-2.325-.227-3.443 1.478 1.824 5.112 1.134 5.112-1.837z"/><path d="m2.5 10.035c0 5.399 6.907 13.965 9.625 13.965 2.242 0 9.375-8.312 9.375-13.965 0-5.533-4.206-10.035-9.375-10.035-5.307 0-9.625 4.502-9.625 10.035zm17.5 0c0 5.043-6.524 12.308-7.875 12.465-1.223-.001-8.125-7.248-8.125-12.465 0-4.706 3.645-8.535 8.125-8.535 4.269 0 7.875 3.909 7.875 8.535z"/></svg>