<svg id="regular" enable-background="new 0 0 24 24" height="512" viewBox="0 0 24 24" width="512" xmlns="http://www.w3.org/2000/svg"><path d="m23.25 3.944h-7.177c-1.226-.616-2.607-.972-4.073-.972s-2.847.356-4.073.972h-7.177c-.414 0-.75.336-.75.75v14.583c0 .414.336.75.75.75h7.177c1.226.618 2.607.973 4.073.973s2.847-.355 4.073-.972h7.177c.414 0 .75-.336.75-.75v-14.584c0-.414-.336-.75-.75-.75zm-21.75 14.584v-13.084h4.282c-1.749 1.645-2.847 3.966-2.847 6.542s1.098 4.897 2.847 6.542zm6.889.059s-.001 0-.001-.001c-2.353-1.275-3.954-3.755-3.954-6.6s1.6-5.326 3.954-6.601c0 0 .001-.001.001-.001 1.074-.581 2.304-.912 3.611-.912s2.537.331 3.611.913c0 0 .001 0 .001.001 2.353 1.275 3.954 3.756 3.954 6.601s-1.6 5.325-3.954 6.6c0 0-.001.001-.001.001-1.074.581-2.304.912-3.611.912s-2.537-.331-3.611-.913zm14.111-.059h-4.282c1.749-1.644 2.847-3.965 2.847-6.542 0-2.576-1.099-4.898-2.847-6.542h4.282z"/><path d="m16.631 11.5c0 .414.336.75.75.75s.75-.336.75-.75c0-3.356-2.268-5.611-5.642-5.611-.414 0-.75.336-.75.75s.336.75.75.75c2.555 0 4.142 1.575 4.142 4.111z"/></svg>