<svg id="regular" enable-background="new 0 0 24 24" height="512" viewBox="0 0 24 24" width="512" xmlns="http://www.w3.org/2000/svg"><path d="m7.885.057c-.28-.117-.604-.052-.818.163l-6.847 6.847c-.215.215-.279.537-.163.818.116.28.39.463.693.463h2.583l5.472 6.376v3.635c0 .669.81 1.001 1.28.53l3.326-3.326 9.343 8.248c.142.127.319.189.496.189.193 0 .386-.074.531-.221.28-.281.293-.732.028-1.028l-8.286-9.299 3.368-3.368c.215-.214.278-.537.163-.817-.116-.28-.39-.463-.692-.463l-3.64-.003-6.374-5.462v-2.589c0-.303-.183-.577-.463-.693zm6.072 10.063c.136.116.309.18.487.18l2.107.002-6.247 6.246v-2.103c0-.179-.064-.353-.181-.488l-5.876-6.848c-.143-.166-.351-.261-.569-.261h-1.117l4.287-4.287v1.124c0 .219.096.427.262.57z"/></svg>