<svg id="regular" enable-background="new 0 0 24 24" height="512" viewBox="0 0 24 24" width="512" xmlns="http://www.w3.org/2000/svg"><path d="m10.249 4.092c-1.683-1.107-3.744-1.385-5.657-.766-2.778.896-4.58 3.419-4.59 6.429-.009 3.325 0 10.497 0 10.497 0 .414.336.749.75.749h2.945c.414 0 .75-.336.75-.75v-4.067c.684 0 1.146-.002 1.951-.009 1.041 0 1.93-.162 2.718-.493.983-.413 1.804-1.006 2.456-1.72l-.684 1.017c-.154.23-.169.527-.04.771.13.245.385.397.662.397h2.824c.229 0 .447-.105.589-.286l2.469-3.13 2.43 3.126c.142.183.361.29.592.29h2.833c.277 0 .532-.153.662-.397s.115-.541-.04-.771l-3.632-5.405 3.632-5.405c.154-.23.169-.527.04-.771-.129-.245-.384-.398-.661-.398h-2.824c-.23 0-.448.106-.59.287l-2.454 3.129-2.446-3.128c-.142-.182-.359-.288-.59-.288h-2.833c-.277 0-.532.153-.662.397s-.115.541.04.771l.865 1.287c-.425-.518-.926-.982-1.505-1.363zm3.729.408 2.811 3.594c.142.182.36.288.59.288.23 0 .448-.106.59-.287l2.82-3.595h1.052l-3.128 4.655c-.17.253-.17.584 0 .837l3.127 4.655h-1.058l-2.792-3.593c-.142-.182-.359-.289-.589-.29-.216-.026-.449.104-.592.286l-2.837 3.597h-1.053l3.127-4.655c.17-.253.17-.584 0-.837l-3.128-4.655zm.542 5.074-1.935 2.879c.502-1.042.736-2.222.618-3.484-.083-.894-.356-1.742-.776-2.51zm-5.986 4.724c-.608.256-1.288.376-2.143.376-1.064.009-1.526.009-2.687.009-.421-.03-.758.333-.758.75v4.067h-1.445c-.002-1.923-.006-7.072.001-9.741.008-2.347 1.402-4.312 3.552-5.006 1.479-.48 3.071-.264 4.37.592 1.311.863 2.144 2.234 2.286 3.764.217 2.323-.97 4.263-3.176 5.189z"/><path d="m7.038 5.939c-.97-.123-1.981.171-2.769.809-.75.607-1.205 1.439-1.28 2.339-.102 1.138-.025 2.234-.025 3.398 0 .414.336.75.75.75 1.471-.007 2.15-.011 2.803 0h.07c1.868 0 3.411-1.323 3.682-3.174.134-.945-.113-1.889-.695-2.658-.608-.805-1.504-1.324-2.536-1.464zm1.747 3.908c-.319 2.181-2.295 1.882-4.329 1.885-.016-.868-.045-1.707.028-2.516.041-.493.3-.956.729-1.303.472-.381 1.066-.56 1.636-.486.008.002.017.003.026.003.609.089 1.142.4 1.503.877.34.449.484.997.407 1.54z"/></svg>