<svg id="regular" enable-background="new 0 0 24 24" height="512" viewBox="0 0 24 24" width="512" xmlns="http://www.w3.org/2000/svg"><path d="m2.858 5.734c-.663.013-1.26.357-1.598.92-.173.286-.262.604-.268.923-.594.318-.992.937-.992 1.65 0 .695.387 1.33 1.01 1.655.599.314 1.307.293 1.876-.048.088.076.18.139.272.197-.339.075-.586.37-.59.72-.015 1.584.259 2.957.858 4.281-.289.267-.761.812-.482 1.668.064.14-.053.071.514.801.959 1.046 1.239 1.875 2.316 1.875.345 0 .682-.111.957-.312.001-.001.002-.002.003-.002 1.737 1.257 3.846 1.938 6.006 1.938.106 0 .212-.001.319-.005.006 0 .013 0 .02-.001 1.899-.053 3.72-.615 5.293-1.628.206.155.524.324.969.324.72 0 1.038-.379 1.423-.762 1.017-1.125 1.607-1.377 1.607-2.29 0-.542-.266-.895-.479-1.116.944-1.794 1.296-3.854 1.008-5.887.761-.75 1.526-1.933.848-2.677-.542-.593-1.281-.148-1.662-.067-1.625-3.502-5.245-5.843-9.179-5.89-.02 0-.041-.001-.061-.001-4.815 0-8.539 3.54-8.387 4.579-.348-.52-.917-.845-1.601-.845zm.062 3.235c-.728.015-.618.904-1.215.584-.337-.176-.235-.644.136-.699.598.003.94-.612.68-1.106-.064-.146-.005-.273.024-.322.158-.261.587-.266.721.046.166.388-.435.508-.241 1.128.251.805 1.11.437 1.759.459.221.004.246.084.267.154.097.318-.088 1.28-1 .616-.561-.337-.464-.86-1.115-.86-.005 0-.011 0-.016 0zm9.877-5.469c.016.001.032.002.048.002 3.517.021 6.751 2.194 8.048 5.408.175.434.638.525 1.105.502-.345.367-.708.517-.648 1.036h-.001c.36 2.132-.013 4.053-.937 5.651-.505.869.398 1.375.462 1.55-.05.1-.025.029-1.441 1.48-.032.018-.063.038-.093.06-.116 0-.71-.838-1.529-.255-.006.004-.012.009-.018.013-1.403.97-3.058 1.505-4.79 1.548-.009 0-.019.001-.027.001-2.038.046-4.023-.598-5.615-1.844-.112-.086-.326-.215-.611-.215-.23 0-.507.084-.814.343-.071.028-.158.063-.194.092-.071-.033-.261-.277-.414-.472-.195-.25-.434-.556-.722-.864-.037-.049-.212-.27-.241-.325.034-.039.104-.1.153-.143.977-.845.352-1.296-.021-2.412.118.038.244.07.378.097 1.622.316 3.588-.917 4.197-3.892.482-2.358-.118-4.569-1.46-5.376-.082-.049-.166-.093-.25-.13 1.537-1.21 3.383-1.845 5.435-1.855zm-5.959 3.272c.674.405 1.144 1.933.764 3.79-.409 1.996-1.563 2.887-2.44 2.72-.799-.156-.937-.655-1.043-1.342-.029-.189-.061-.341-.095-.438-.003-.008-.009-.013-.012-.021 2.703.836 3.718-3.766.786-3.926-.007-.178-.047-.356-.107-.532.802.733 1.33-.737 2.147-.251z"/></svg>