<svg id="regular" enable-background="new 0 0 24 24" height="512" viewBox="0 0 24 24" width="512" xmlns="http://www.w3.org/2000/svg"><path d="m2.151 12.013c-1.385.417-2.115 1.688-2.115 2.961 0 3.474 4.5 4.212 5.891 1.351v4.56c0 3.755 5.17 4.077 6.078.976.953 3.174 6.073 2.722 6.073-.978 0-1.232-.725-2.29-1.766-2.794h4.575c3.774 0 4.083-5.221.935-6.095 3.276-1.062 2.73-6.062-.957-6.062-1.214 0-2.279.629-2.787 1.684v-4.501c0-3.755-5.167-4.077-6.077-.978-.961-3.213-6.076-2.723-6.076.978 0 1.246.74 2.316 1.8 2.813h-4.608c-3.761 0-4.08 5.185-.966 6.085zm2.597 2.961c0 2.068-3.212 2.239-3.212.001 0-.899.568-1.617 1.599-1.617h1.613zm1.5-1.425c-.046-.838.105-1.074-.166-1.389h1.72c-.657.251-1.221.714-1.554 1.389zm4.405 7.336c0 2.133-3.227 2.136-3.227 0v-5.911c0-2.127 3.227-2.128 3.227 0zm1.5-2.95v-1.626c.264.617.717 1.145 1.369 1.462-.8.043-1.052-.107-1.369.164zm1.198 2.95v-1.615c.436.098 3.227-.544 3.227 1.613-.001 2.13-3.226 2.123-3.227.002zm7.536-4.296h-5.923c-2.129 0-2.129-3.231 0-3.231h5.923c2.135 0 2.138 3.231 0 3.231zm-.023-9.156c2.243 0 2.073 3.227.005 3.227h-1.613c.135-.616-.591-3.227 1.608-3.227zm-3.108 3.055c.043.804-.102 1.02.16 1.37h-1.632c.621-.262 1.153-.716 1.472-1.37zm-4.405-7.373c0-2.133 3.227-2.136 3.227 0v5.929c0 2.134-3.227 2.134-3.227 0zm.68 8.879c-1.081.3-1.754 1.104-2.018 2.045-.31-1.084-1.145-1.748-2.11-1.994 1.12-.282 1.814-1.102 2.086-2.06.302 1.077 1.104 1.746 2.042 2.009zm-2.18-5.928v1.644c-.268-.627-.73-1.165-1.399-1.48.846-.045 1.045.107 1.399-.164zm-1.198-2.956v1.62c-.434-.097-3.229.546-3.229-1.615.001-2.12 3.229-2.188 3.229-.005zm-7.536 4.318h5.923c2.135 0 2.138 3.231 0 3.231h-5.923c-2.135 0-2.138-3.231 0-3.231z"/></svg>