<svg id="regular" enable-background="new 0 0 24 24" height="512" viewBox="0 0 24 24" width="512" xmlns="http://www.w3.org/2000/svg"><path d="m24 12.427c0-.414-.336-.75-.75-.75h-3.844c-.414 0-.75.336-.75.75v3.093c0 .511-.894.516-.894 0v-3.032c0-.498-.477-.858-.956-.721l-2.022.578-1.286-.576c-.497-.221-1.057.142-1.057.685v3.016c0 3.05 2.593 5.531 5.779 5.531s5.78-2.503 5.78-5.58zm-1.5 2.994c0 2.249-1.919 4.079-4.279 4.079s-4.279-1.808-4.279-4.031v-1.858c.358.13.596.361.991.251l1.33-.38v2.038c0 2.5 3.894 2.496 3.894 0v-2.343l2.344.001v2.243z"/><path d="m5.779 20.995c3.187 0 5.779-2.472 5.779-5.51v-6.886c0-.524.89-.524.89 0v1.329c0 .296.174.564.443.685l1.535.687c.16.072.342.083.513.037l2.286-.653c.322-.092.544-.386.544-.721v-1.531c0-2.995-2.587-5.432-5.766-5.432s-5.766 2.421-5.766 5.398v6.976c0 .527-.89.525-.89 0v-2.947c0-.414-.336-.75-.75-.75h-3.847c-.414 0-.75.336-.75.75v2.994c0 3.073 2.592 5.574 5.779 5.574zm-4.279-7.818h2.347v2.197c0 2.51 3.89 2.51 3.89 0v-6.976c0-2.149 1.914-3.898 4.266-3.898s4.266 1.764 4.266 3.932v.963l-1.479.423-.842-.378v-.841c0-2.51-3.89-2.51-3.89 0v6.886c0 2.211-1.92 4.01-4.279 4.01s-4.279-1.828-4.279-4.075z"/></svg>