<svg id="regular" enable-background="new 0 0 24 24" height="512" viewBox="0 0 24 24" width="512" xmlns="http://www.w3.org/2000/svg"><path d="m1.447 9.333c.6.585 2.328 1.943 5.422 1.943 1.597 0 3.559-.362 5.917-1.379.23-.099.396-.307.441-.553.05-.27-.051-.469-.227-.806-2.175-4.309-6.024-5.695-8.688-5.578-2.009.091-3.594.999-4.134 2.365-.479 1.189.031 2.8 1.269 4.008zm.124-3.452c.317-.801 1.42-1.36 2.81-1.423.083-.003.169-.005.256-.005 2.093 0 4.978 1.128 6.81 4.371-5.561 2.134-8.243.128-8.952-.564-.887-.866-1.137-1.85-.924-2.379z"/><path d="m9.546 13.519c-.314-.149-.688-.064-.906.205-1.719 2.125-2.252 3.886-2.59 4.658-.276.708-.28 1.366-.011 1.956.432.947 1.31 1.309 2.159 1.648 1.342.523 2.781.863 4.277 1.01.339.033.663-.166.78-.494.116-.324-.003-.685-.29-.876-1.971-1.317-3.148-3.515-3.148-5.879 0-.493.047-.962.14-1.395.072-.338-.098-.684-.411-.833zm.614 7.536c-.471-.128-.931-.278-1.379-.451-.864-.418-1.741-.621-1.353-1.632.119-.256.357-1.068.953-2.172.193 1.565.813 3.033 1.779 4.255z"/><path d="m21.133 19.543c-2.094-.295-3.921-1.51-5.014-3.333-1.101-1.838-1.305-4.061-.559-6.098.097-.263.038-.558-.151-.765s-.48-.291-.749-.217c-.028.007-.156.045-.34.111 3.057-1.477 4.802-3.427 4.788-5.354-.009-1.12-.643-2.08-1.696-2.569-1.092-.532-2.383-.386-3.297.37-.857.708-2.11 2.571-.879 7.093.059.215.209.393.412.485.099.045.205.068.312.068.096 0 .19-.027.281-.064-1.119.416-4.086 1.845-4.086 5.328 0 2.689 1.322 5.333 3.367 6.735 1.736 1.19 3.756 1.365 5.667.625 1.699-.658 2.136-.932 2.339-1.114.475-.424.237-1.213-.395-1.301zm-6.062-16.699c.302-.25.643-.342.959-.342.274 0 .531.069.729.167.005.002.01.005.016.007.533.247.829.681.833 1.223.007.911-.834 2.285-3.146 3.581-.668-3.153.183-4.284.609-4.636zm-.7 17.252c-1.649-1.13-2.715-3.289-2.715-5.498 0-1.802 1.126-2.861 2.082-3.437-.337 2.002.039 4.056 1.096 5.819.955 1.593 2.372 2.804 4.04 3.491-1.61.636-3.07.607-4.503-.375z"/><path d="m23.002 19.081c1.25-2.08 1.33-4.566.213-6.651-1.151-2.149-3.36-3.502-5.908-3.619-.325-.012-.635.189-.743.503-.721 2.085-.514 4.392.568 6.329 1.076 1.927 2.922 3.306 5.064 3.783.312.071.639-.067.806-.345zm-4.56-4.168c-.778-1.394-.997-3.022-.625-4.55 1.766.25 3.263 1.259 4.075 2.775.779 1.454.803 3.166.088 4.678-1.492-.48-2.762-1.515-3.538-2.903z"/></svg>