<svg id="regular" enable-background="new 0 0 24 24" height="512" viewBox="0 0 24 24" width="512" xmlns="http://www.w3.org/2000/svg"><path d="m23 16.612v-6.081c0-.414-.336-.75-.75-.75h-6.141c-.28 0-.537.156-.666.405l-4.479 8.652c-1.234 2.384-1.565 3.025-1.616 3.106-.281.395-.117.954.336 1.132.357.143 1.229.915 2.357.915.405 0 .845-.1 1.305-.364 2.633-1.603 4.558-2.611 5.963-3.346 2.611-1.366 3.691-1.931 3.691-3.669zm-10.417 5.725c-.551.314-.988.127-1.612-.25.242-.464.644-1.241 1.326-2.56l4.269-8.247h4.934v5.331c0 .778-.362 1.02-2.886 2.34-1.424.746-3.374 1.767-6.031 3.386z"/><path d="m21.601 4.999c-2.798-1.456-4.665-2.577-6.027-3.396-2.442-1.466-3.454-2.071-4.921-1.25-2.663 1.625-4.593 2.638-6.003 3.378-2.582 1.355-3.65 1.916-3.65 3.664.108 3.007.046 5.123 0 6.667-.085 2.87-.12 4.058 1.379 4.917l3.816 2.145c.377.212.849.061 1.039-.32.072-.145 1.521-2.937 3.004-5.793l2.145-4.134c.12-.232.111-.511-.025-.735s-.379-.36-.641-.36h-4.11c-.876 0-1.187-.651-1.187-1.209 0-.557.311-1.208 1.187-1.208h14.496c.251 0 .485-.125.624-.334.14-.209.165-.473.068-.705-.233-.558-.65-1.026-1.194-1.327zm-13.994.865c-1.764 0-2.687 1.362-2.687 2.708 0 1.347.923 2.709 2.687 2.709h2.875l-1.576 3.038c-1.068 2.059-2.119 4.083-2.653 5.116l-3.134-1.761c-.669-.383-.701-.806-.62-3.568.047-1.565.11-3.709.001-6.739 0-.764.357-1.002 2.847-2.309 1.429-.75 3.384-1.776 6.062-3.411.186-.104.346-.165.537-.165.477 0 1.142.377 2.854 1.406 1.233.74 2.874 1.726 5.223 2.975z"/></svg>