<svg id="regular" enable-background="new 0 0 24 24" height="512" viewBox="0 0 24 24" width="512" xmlns="http://www.w3.org/2000/svg"><path d="m14.08 7.94.414 1.903h-4.988l.413-1.903c.147-.677-.628-1.175-1.183-.759l-5.625 4.219c-.399.3-.4.9 0 1.2l5.625 4.219c.556.415 1.33-.083 1.183-.759l-.414-1.903h4.987l-.412 1.903c-.148.684.634 1.17 1.183.759l5.625-4.219c.399-.3.4-.9 0-1.2l-5.625-4.219c-.553-.415-1.331.08-1.183.759zm1.893 1.649 3.214 2.411-3.214 2.411.184-.846c.102-.466-.254-.909-.733-.909h-6.849c-.481 0-.834.445-.733.909l.184.846-3.214-2.411 3.214-2.411-.184.846c-.101.464.252.909.733.909h6.849c.477 0 .835-.441.733-.909z"/><path d="m12 0c-6.617 0-12 5.383-12 12s5.383 12 12 12 12-5.383 12-12-5.383-12-12-12zm0 22.5c-5.79 0-10.5-4.71-10.5-10.5s4.71-10.5 10.5-10.5 10.5 4.71 10.5 10.5-4.71 10.5-10.5 10.5z"/></svg>