<svg id="regular" enable-background="new 0 0 24 24" height="512" viewBox="0 0 24 24" width="512" xmlns="http://www.w3.org/2000/svg"><path d="m19.575 6.25c-2.744-.78-5.468.252-6.932 2.626-.144.233-.145.518-.022.748l-2.311-2.009c-.002-.002-.005-.002-.007-.004-1.82-1.668-4.376-2.083-6.684-1.075-2.232.975-3.619 3.069-3.619 5.464 0 2.724 1.728 4.978 4.402 5.743.612.175 1.224.26 1.821.26 2.08 0 3.984-1.031 5.132-2.876.15-.24.145-.535.01-.769l2.206 1.922c.003.003.007.004.01.006.017.013.027.031.046.043 1.496 1.381 3.133 1.671 4.243 1.671 3.38 0 6.13-2.691 6.13-6 0-2.731-1.737-4.989-4.425-5.75zm-2.987 6.823-1.338-1.163c.156.071.326.107.496.06.241-.065.434-.246.515-.482.335-.983 1.226-1.203 1.893-1.092.651.108 1.411.593 1.411 1.604 0 .63-.38 1.212-.969 1.482-.374.172-1.129.346-2.008-.409zm-9.276-2.243c.011.01.038.032.066.055l1.378 1.2c-.159-.074-.332-.111-.506-.064-.243.066-.436.25-.515.489-.32.979-1.208 1.202-1.882 1.094-.654-.104-1.418-.587-1.418-1.604 0-.479.21-.92.591-1.24.378-.317.87-.458 1.349-.375.504.067.797.323.937.445zm10.558 5.67c-.842 0-2.085-.221-3.224-1.274-.016-.015-.05-.044-.084-.072-.002-.002-.003-.005-.005-.007l-6.193-5.393c-.009-.008-.02-.009-.029-.016-.014-.011-.021-.028-.037-.038-.211-.185-.774-.676-1.694-.796-.892-.16-1.817.1-2.542.707-.716.6-1.127 1.472-1.127 2.389 0 1.836 1.347 2.873 2.683 3.086 1.221.195 2.357-.264 3.045-1.158l1.053.921c-1.379 1.698-3.451 1.866-4.9 1.452-1.604-.459-3.316-1.829-3.316-4.301 0-1.817 1.017-3.346 2.719-4.089 1.76-.77 3.71-.457 5.089.821.003.003.007.004.01.006.003.003.004.007.007.009l6.281 5.46c.001.001.001.001.002.001s.001.001.001.001c1.09.936 2.439 1.173 3.612.636 1.12-.514 1.843-1.631 1.843-2.846 0-1.824-1.339-2.863-2.666-3.083-1.216-.204-2.36.256-3.057 1.153l-1.059-.922c1.367-1.693 3.434-1.864 4.882-1.455 1.54.437 3.336 1.826 3.336 4.308 0 2.481-2.077 4.5-4.63 4.5z"/></svg>