<svg id="regular" enable-background="new 0 0 24 24" height="512" viewBox="0 0 24 24" width="512" xmlns="http://www.w3.org/2000/svg"><path d="m8.553 12.37h-7.837c-2.451 0 1.159 11.626 11.214 11.625 7.155 0 12.685-6.154 11.974-13.202-.639-6.156-5.783-10.798-11.967-10.798-10.102 0-13.75 11.625-11.222 11.625h7.838c1.074 0 .695-1.39.74-2.243 2.961.105 4.523-.084 5.277-.017v5.27c-.853.076-2.136-.136-5.279-.018-.027-.837.324-2.242-.738-2.242zm4.598 3.75c1.394.046 2.919.168 2.919-1.313v-5.625c0-1.475-1.509-1.357-2.915-1.312-.946.03-2.238.072-4.038 0-1.196 0-1.365 1.04-1.312 2.162.001.029.003.059.004.088h-6.234c.891-4.969 5.215-8.625 10.362-8.625 8.903 0 13.729 10.336 8.152 17.143-5.653 6.901-16.912 4.046-18.511-4.769h6.234c-.046 1.081.006 2.247 1.333 2.25 1.767-.072 3.062-.03 4.006.001z"/></svg>