<svg id="regular" enable-background="new 0 0 24 24" height="512" viewBox="0 0 24 24" width="512" xmlns="http://www.w3.org/2000/svg"><path d="m.75 24h22.5c.414 0 .75-.336.75-.75v-12.656c0-.414-.336-.75-.75-.75h-7.031c-.414 0-.75.336-.75.75v5.578h-6.938v-5.578c0-.414-.336-.75-.75-.75h-7.031c-.414 0-.75.336-.75.75v12.656c0 .414.336.75.75.75zm.75-12.656h5.531v5.578c0 .414.336.75.75.75h8.438c.414 0 .75-.336.75-.75v-5.578h5.531v11.156h-21z"/><path d="m7.781 0c-.414 0-.75.336-.75.75v6.328c0 .414.336.75.75.75h8.438c.414 0 .75-.336.75-.75v-6.328c0-.414-.336-.75-.75-.75zm7.688 6.328h-6.938v-4.828h6.938z"/></svg>