<svg id="regular" enable-background="new 0 0 24 24" height="512" viewBox="0 0 24 24" width="512" xmlns="http://www.w3.org/2000/svg"><path d="m16.603 6.776c-.324-4.352-4.39-6.114-9.188.596-.046-1.056-.269-2.076-.896-2.803-1.349-1.558-4.279-1.43-5.516.952-1.678 3.441-1.789 14.117 3.178 15.45 3.694.729 4.947-2.467 6.462-5.674.808 4.014 4.531 4.777 6.605 2.471 1.24-1.211 1.748-3.908 6.205-10.44 1.955-3.246-1.648-6.401-6.85-.552zm5.588-.258c-4.897 7.172-4.863 9.073-6.025 10.212-1.618 1.797-4.548.787-4.154-4.163.062-.782-.977-1.123-1.387-.453-2.376 3.863-2.845 8.038-6.104 7.396-3.414-.92-3.726-10.14-2.18-13.315.718-1.378 2.362-1.43 3.042-.644.357.413.723 1.113.379 4.551-.08.799.995 1.146 1.396.449 4.945-8.555 8.782-7.237 7.829-1.595-.133.779.885 1.208 1.349.562 3.968-5.527 7.223-5.279 5.855-3z"/></svg>