<svg id="regular" enable-background="new 0 0 24 24" height="512" viewBox="0 0 24 24" width="512" xmlns="http://www.w3.org/2000/svg"><path d="m12 .016c-6.617 0-12 5.376-12 11.984s5.383 11.984 12 11.984 12-5.376 12-11.984-5.383-11.984-12-11.984zm0 22.468c-5.79 0-10.5-4.703-10.5-10.484s4.71-10.484 10.5-10.484 10.5 4.703 10.5 10.484-4.71 10.484-10.5 10.484z"/><path d="m8.087 9.331c1.223 0 2.217-.994 2.217-2.215s-.994-2.216-2.217-2.216-2.217.994-2.217 2.216.994 2.215 2.217 2.215zm0-2.931c.396 0 .717.321.717.715s-.322.716-.717.716-.717-.321-.717-.715.321-.716.717-.716z"/><path d="m15.913 9.331c1.223 0 2.217-.994 2.217-2.215s-.994-2.216-2.217-2.216-2.217.994-2.217 2.215.994 2.216 2.217 2.216zm0-2.931c.396 0 .717.321.717.715s-.322.715-.717.715-.717-.321-.717-.715.322-.715.717-.715z"/><path d="m2.78 11.276c-.796 5.206 3.479 10.143 9.22 10.143 5.471 0 9.941-4.553 9.232-10.125-.048-.375-.367-.655-.744-.655h-16.967c-.37.001-.685.271-.741.637zm1.417.864h15.603c.18 4.366-3.447 7.78-7.799 7.78-4.573-.001-8.033-3.704-7.804-7.78z"/></svg>