<svg id="regular" enable-background="new 0 0 24 24" height="512" viewBox="0 0 24 24" width="512" xmlns="http://www.w3.org/2000/svg"><path d="m17.369 23.021c1.221 0 2.214-.995 2.214-2.218s-.993-2.217-2.214-2.217-2.214.995-2.214 2.217.993 2.218 2.214 2.218zm0-2.935c.394 0 .714.322.714.717 0 .396-.32.718-.714.718s-.714-.322-.714-.718c0-.395.32-.717.714-.717z"/><path d="m22.365 2.088c-1.239-1.249-3.418-.511-3.626 1.263-.61 4.611-1.198 7.759-1.588 9.842-.536 2.867-.716 3.833-.175 4.484.635.764 2.169.575 2.492-.625 3.18-12.626 4.342-13.498 2.897-14.964zm-4.138 13.643c.088-.604.237-1.401.398-2.261.393-2.099.985-5.271 1.602-9.933.065-.552.727-.741 1.071-.395l-.001.001c.579.586-.301 2.037-3.07 12.588z"/><path d="m15.076 2.174c.187-.445.145-.949-.111-1.35-.576-.903-1.276-.558-1.968-.765-.712-.208-1.457.154-1.738.84l-3.156 7.736-3.173-7.739c-.439-1.062-1.402-.893-1.865-.813-.724.128-1.322-.011-1.804.687-.289.418-.342.945-.143 1.408l4.847 11.351v9.018c0 .531.226.858.416 1.038.69.655 1.931.347 2.293.407.456.068.849-.098 1.118-.374.877-.901.206-2.552.438-10.097zm-6.281 10.888c-.284.662.04 8.77-.077 9.428-.394-.02-.975.053-1.254.007-.021-9.6.05-9.156-.06-9.416l-4.947-11.431c.466.007.82-.092 1.109-.128l3.846 9.379c.115.281.39.465.694.465.305 0 .579-.185.694-.467l3.772-9.402c.355.106.723.154 1.096.155z"/></svg>