<svg id="regular" enable-background="new 0 0 24 24" height="512" viewBox="0 0 24 24" width="512" xmlns="http://www.w3.org/2000/svg"><path d="m9.664 10.657c-.571-.408-1.117-.636-1.855-.636-2.599 0-3.809 2.826-3.809 4.735 0 .676 0 2.732 1.696 2.732.638-.003 1.44-.34 2.118-.771 3.121 5.785 4.334 7.283 7.171 7.283 2.979 0 6.015-2.24 6.015-4.438 0-1.077-.91-2.386-1.747-1.937-3.242 1.737-3.556.981-7.085-4.127 2.535-2.184 4.098-3.754 6.059-6.505 1.85-1.23 2.749-2.454 2.749-3.737 0-1.902-2.294-3.858-3.909-1.703-3.227-1.199-4.722-1.553-6.43-1.553-2.014 0-3.716 1.741-3.716 3.802 0 1.201.553 2.06 1.517 2.356.595.183 1.208-.604 2.059-.604.79 0 2.026.309 3.562.752-1.124 1.342-2.94 3.147-4.395 4.351zm6.277-4.33c.294-.42.088-1.004-.401-1.148-2.216-.658-3.875-1.124-5.042-1.124-.518 0-1.164.189-1.849.539-.668-.673.048-3.094 1.988-3.094 1.59 0 3.037.373 6.45 1.661.869.329 1.111-.879 1.507-1.068.426 0 .882.682.882 1.163 0 1.304-2.2 2.486-2.391 2.755-2.037 2.875-3.622 4.417-6.404 6.786-.292.249-.35.678-.132.995 3.433 5.003 4.551 7.481 8.885 5.423.536 1.377-2.133 3.286-4.449 3.286-1.93 0-2.739-.669-6.262-7.255-.229-.43-.799-.527-1.158-.208-.613.542-1.496.95-1.877.968-.008-.009-.188-.211-.188-1.25 0-1.128.677-3.235 2.309-3.235.403 0 .698.096 1.38.668.271.227.664.233.942.017 1.953-1.521 4.723-4.324 5.81-5.879z"/></svg>